<?xml version="1.0" encoding="UTF-8" standalone="no"?>
<!-- Created with Inkscape (http://www.inkscape.org/) -->

<svg
   id="svg5"
   version="1.1"
   viewBox="0 0 25.557289 38.392429"
   xmlns="http://www.w3.org/2000/svg"
   xmlns:svg="http://www.w3.org/2000/svg">
  <defs
     id="defs2">
    <clipPath
       clipPathUnits="userSpaceOnUse"
       id="clipPath38159">
      <path
         id="path38161"
         style="fill:#ff0000;fill-opacity:1;fill-rule:nonzero;stroke:none;stroke-width:0.264583"
         d="m 106.69323,82.798047 v 3.349149 c 5e-5,2.64e-4 -4e-5,7.93e-4 0,0.0011 v 0.0016 5.3e-4 5.29e-4 0.20257 c 9e-5,2.65e-4 5.3e-4,0.0013 5.3e-4,0.0016 1.7e-4,5.29e-4 5.3e-4,0.0016 5.3e-4,0.0021 2e-5,2.65e-4 0,0.0013 0,0.0016 -2e-5,2.64e-4 5e-5,7.93e-4 0,0.0011 -7e-5,2.59e-4 -5.3e-4,0.0013 -5.3e-4,0.0016 l -5.3e-4,5.29e-4 v 5.29e-4 0.0052 c 7e-5,2.65e-4 5.3e-4,0.0013 5.3e-4,0.0016 v 5.29e-4 c 1.9e-4,5.29e-4 5.3e-4,0.0016 5.3e-4,0.0021 3e-5,2.64e-4 0,0.0013 0,0.0016 -2e-5,2.65e-4 5e-5,0.0013 0,0.0016 -7e-5,2.48e-4 -5.3e-4,0.0013 -5.3e-4,0.0016 l -5.3e-4,5.29e-4 v 5.29e-4 5.3e-4 5.29e-4 4.637929 h 7.97057 v -8.21862 z" />
    </clipPath>
    <clipPath
       clipPathUnits="userSpaceOnUse"
       id="clipPath38423">
      <path
         id="path38425"
         style="fill:#ff0000;fill-opacity:1;fill-rule:nonzero;stroke:none;stroke-width:0.264583"
         d="M 97.944927,67.728166 V 93.374662 H 114.41731 V 67.728166 Z m 7.071923,16.372644 h 5.3e-4 5.3e-4 5.3e-4 c 5.3e-4,-9e-5 0.001,6.4e-5 0.002,0 0.0413,-0.0042 0.0708,0.04665 0.0341,0.115237 -0.003,0.0048 -0.005,0.0096 -0.007,0.01447 0.0171,0.0026 0.0348,0.0089 0.0517,0.01085 0.0102,0.0081 0.0203,0.01619 0.0305,0.02429 0.004,0.0033 0.008,0.0065 0.0114,0.0098 0.0184,-0.01865 0.0372,-0.0281 0.0537,-0.02945 h 5.3e-4 c 0.025,-0.0016 0.0447,0.01405 0.0496,0.03876 0.004,-0.0011 0.008,-0.0013 0.0114,-0.0021 0.0327,-0.05097 0.0665,-0.100906 0.10645,-0.146761 0.12791,0.08011 0.26322,0.149735 0.38396,0.240294 0.003,0.0021 -0.0866,0.242927 -0.0946,0.264068 -0.0329,0.07135 -0.0247,0.129061 0,0.199472 0.036,0.09881 0.0677,0.198868 0.0894,0.301789 0.01,0.06197 0.0266,0.12302 0.0522,0.18035 0.0194,0.05089 0.0558,0.09151 0.0863,0.135909 0.0358,0.05285 0.0832,0.09616 0.12454,0.144695 0.0357,0.04011 0.0702,0.08123 0.10387,0.122989 0.0127,0.0085 0.0252,0.01714 0.0377,0.02585 0.0283,0.01783 0.0543,0.03794 0.078,0.06149 0.0191,0.0227 0.0418,0.04149 0.0636,0.06149 0.0109,0.0096 0.0212,0.01987 0.031,0.03049 0.0291,-0.01834 0.052,-0.01461 0.0827,0 0.0236,0.01479 0.0467,0.03033 0.0698,0.04599 0.0267,0.01725 0.0493,0.0396 0.0692,0.06408 0.0166,0.02048 0.03,0.04333 0.0455,0.0646 0.001,0.0013 0.002,0.0027 0.003,0.0041 h 5.3e-4 c 0.007,0.0011 0.0147,0.0063 0.0228,0.01394 5.3e-4,-0.0038 0.001,-0.0076 0.002,-0.01138 h -5.3e-4 c 0.003,-0.0123 0.0101,-0.01868 0.0165,-0.01963 l 5.3e-4,-0.01241 c 0.007,-0.0011 0.0134,0.0045 0.0134,0.01601 0.005,0.0019 0.0102,0.0057 0.0139,0.01394 0.003,0.0069 0.006,0.01397 0.009,0.02119 l 5.3e-4,-5.29e-4 0.001,-0.0011 h 5.3e-4 c 2.4e-4,8e-6 2.6e-4,2.7e-5 0.002,0 0.007,-7.93e-4 0.016,0.0058 0.0181,0.02016 5.3e-4,0.0043 -5.3e-4,0.0086 -10e-4,0.01291 h 10e-4 c 2.4e-4,1.54e-4 2.3e-4,7.94e-4 0.002,0.0011 2e-4,2.43e-4 7.9e-4,0.0013 10e-4,0.0016 v 5.29e-4 c 1.2e-4,2.33e-4 5.3e-4,0.0019 5.3e-4,0.0021 v 5.29e-4 c 6e-5,2.46e-4 5.3e-4,0.0024 5.3e-4,0.0026 v 0.0031 c 10e-5,0.0013 10e-6,0.0019 5.3e-4,0.0031 v 0.0031 0.0016 5.3e-4 c -4e-5,2.46e-4 -5.3e-4,0.0013 -5.3e-4,0.0016 -1.1e-4,2.54e-4 -1e-5,0.0019 -5.3e-4,0.0021 h -5.3e-4 v 0.0026 c -5e-5,2.33e-4 5e-5,0.0029 0,0.0031 l -10e-4,5.29e-4 v 0.0011 c 6e-5,5.29e-4 5.3e-4,5.29e-4 5.3e-4,0.0011 l -5.3e-4,5.29e-4 v 0.0016 5.29e-4 5.29e-4 c -3e-5,2.62e-4 3e-5,0.0019 0,0.0021 v 5.29e-4 c 0,1.19e-4 1.4e-4,0.0029 0,0.0031 6e-5,7.94e-4 0,0.0021 0,0.0031 v 5.29e-4 c 0,2.54e-4 -3e-5,0.0019 0,0.0021 6e-5,0.0011 -5e-5,0.0026 0,0.0036 v 0.0016 5.29e-4 5.29e-4 l -5.3e-4,5.3e-4 c -5e-5,5.29e-4 -5.3e-4,0.0011 -5.3e-4,0.0016 -5e-5,5.29e-4 4e-5,0.0016 0,0.0021 -2.5e-4,0.0038 -5.3e-4,0.0053 -5.3e-4,0.0062 v 0.0021 c -7e-5,5.29e-4 -2e-5,0.0035 -5.3e-4,0.0062 7.9e-4,0.0013 0.002,0.0043 0.002,0.0062 0,0.0076 5.3e-4,0.01466 0.001,0.02223 3e-5,2.62e-4 -2e-5,0.0019 0,0.0021 -6e-5,0.0011 -2e-5,0.0021 -5.2e-4,0.0031 1.3e-4,2.64e-4 -5e-5,0.0019 0,0.0021 9e-5,5.29e-4 1.4e-4,0.0019 5.2e-4,0.0026 v 5.29e-4 c 4e-5,2.17e-4 -5e-5,0.0019 0,0.0021 l 5.3e-4,0.0021 v 5.29e-4 c 2e-5,2.3e-4 2e-5,0.0019 0,0.0021 v 5.3e-4 5.29e-4 5.29e-4 c -1e-4,7.94e-4 -3e-5,0.0016 -5.3e-4,0.0021 l -5.2e-4,5.29e-4 -5.3e-4,5.29e-4 c 1.4e-4,0.0038 5.3e-4,0.0076 5.3e-4,0.01138 4e-5,0.0026 4e-5,0.0088 0,0.01138 -4e-5,0.0019 4e-5,0.0044 0,0.0062 1.8e-4,0.0063 5.2e-4,0.0123 5.2e-4,0.0186 -1e-4,0.0048 -1e-5,0.0098 -5.2e-4,0.01447 -1.4e-4,0.0035 2e-5,0.0073 -5.3e-4,0.01085 -1.8e-4,0.0029 -1.8e-4,0.0059 5.3e-4,0.0088 2.6e-4,0.0039 10e-6,0.0081 5.2e-4,0.01188 2.6e-4,0.0026 -6e-5,0.0052 -5.2e-4,0.0078 v 5.3e-4 c 7.9e-4,7.93e-4 0.002,0.0019 0.002,0.0031 v 5.29e-4 c 4e-5,2.54e-4 5.3e-4,0.0029 5.3e-4,0.0031 v 0.0016 c 1.2e-4,7.94e-4 1.4e-4,0.0019 5.3e-4,0.0026 9e-5,2.62e-4 5.3e-4,0.0013 5.3e-4,0.0016 1.5e-4,5.29e-4 5.3e-4,0.0021 5.3e-4,0.0026 v 0.0021 c -4e-5,2.62e-4 5e-5,0.0024 0,0.0026 -9e-5,2.62e-4 -5.3e-4,0.0013 -5.3e-4,0.0016 l -5.3e-4,5.29e-4 v 5.29e-4 l -5.3e-4,5.29e-4 -5.3e-4,5.29e-4 h -0.001 v 5.29e-4 c 1.6e-4,5.3e-4 0.001,7.94e-4 0.001,0.0011 1.2e-4,2.62e-4 5.3e-4,0.0013 5.3e-4,0.0016 9e-5,2.65e-4 5.3e-4,0.0029 5.3e-4,0.0031 7e-5,2.57e-4 5.3e-4,0.0019 5.3e-4,0.0021 5e-5,2.64e-4 5.3e-4,0.0024 5.3e-4,0.0026 v 5.3e-4 c 1.8e-4,5.29e-4 10e-4,0.0016 10e-4,0.0021 4e-5,2.62e-4 0,0.0013 0,0.0016 -1e-5,2.59e-4 6e-5,0.0024 0,0.0026 -7e-5,2.54e-4 -10e-4,0.0019 -10e-4,0.0021 h -5.3e-4 v 0.0016 c 0,2.27e-4 -2e-5,0.0019 0,0.0021 v 5.3e-4 5.29e-4 l -5.3e-4,5.29e-4 c -8e-5,2.35e-4 -5.3e-4,0.0019 -5.3e-4,0.0021 v 0.0016 l -5.3e-4,5.29e-4 -0.001,0.0016 c -2.5e-4,1.58e-4 -2.3e-4,0.0019 -0.002,0.0021 h -0.001 -5.3e-4 l -5.3e-4,-5.29e-4 -5.3e-4,-0.0021 c 6e-5,7.93e-4 -9e-5,0.0019 0,0.0026 4e-5,2.57e-4 -3e-5,0.0024 0,0.0026 -3e-5,0.0019 5.3e-4,0.0044 -0.002,0.0057 -2.4e-4,2.62e-4 -2.6e-4,0.0029 -0.002,0.0031 -2.3e-4,1.27e-4 0.001,0.0031 -0.002,0.0031 h -5.3e-4 c 10e-4,0.0058 0.002,0.01177 0.003,0.01757 h 5.3e-4 c 0.002,0.0075 -0.004,0.0097 -0.007,0.0062 -7.9e-4,-0.0011 -0.002,-0.0043 -0.003,-0.0062 -0.001,-0.0058 -0.002,-0.01167 -0.003,-0.01757 -1.8e-4,-0.0013 -5.3e-4,-0.0019 -0.001,-0.0031 -2.4e-4,-0.0032 2.7e-4,-0.0031 -5.3e-4,-0.0062 V 86.422 c -0.007,0.0016 -0.0149,-0.0031 -0.0191,-0.01601 -0.002,-0.0047 -0.003,-0.0092 -0.004,-0.01394 -2.6e-4,-2.64e-4 -8e-4,-0.0019 -10e-4,-0.0021 5e-5,0.0011 10e-4,0.0024 5.3e-4,0.0031 -0.002,0.0024 -0.006,0.0016 -0.009,-0.0026 l -0.001,5.29e-4 -5.3e-4,0.0021 c -0.002,0.0011 -0.005,2.4e-5 -0.007,-0.0031 -1.4e-4,-2.61e-4 -8e-4,-0.0024 -10e-4,-0.0026 -1.2e-4,-2.62e-4 5e-5,-0.0019 -5.3e-4,-0.0021 -5.3e-4,0.0013 0.001,0.0024 -0.002,0.0031 -0.001,7.93e-4 -0.003,0.0026 -0.005,0.0021 l -5.3e-4,-0.0011 c -0.001,-0.0013 -0.003,-0.0039 -0.003,-0.0067 2.3e-4,-0.0019 5.3e-4,-0.0037 10e-4,-0.0057 0,-7.94e-4 -10e-6,-0.0024 0,-0.0031 3e-5,-2.59e-4 -10e-6,-0.0024 0,-0.0026 3e-5,-2.65e-4 -10e-6,-0.0024 0,-0.0026 -0.002,0.0021 -0.005,0.0019 -0.008,-0.0031 -0.006,-0.0098 -0.0131,-0.02093 -0.0181,-0.031 -0.004,-0.0072 -0.008,-0.01405 -0.009,-0.02222 h 0.001 c -1.3e-4,-0.0013 5.3e-4,-0.0021 5.3e-4,-0.0031 -0.0157,0.0097 -0.0353,0.01402 -0.0605,0.01344 -0.0309,-0.0063 -0.0565,-0.02416 -0.0811,-0.04289 -0.01,-0.0077 -0.019,-0.0172 -0.0305,-0.0217 -0.0189,-0.0036 -0.0369,-0.01053 -0.0553,-0.01601 -0.0288,-0.0066 -0.0553,-0.01847 -0.0796,-0.03514 -0.0134,-0.01069 -0.0246,-0.02357 -0.0346,-0.03721 -0.01,-0.0021 -0.0175,-0.0049 -0.0191,-0.0078 -0.0112,-0.01963 -0.0244,-0.04104 -0.03,-0.06305 -0.008,-0.0091 -0.0152,-0.0186 -0.0227,-0.02791 -5.2e-4,2.04e-4 -0.001,2.65e-4 -0.002,5.29e-4 0.0345,0.168945 0.046,0.335415 -0.14419,0.229442 -0.0329,-0.01831 -0.0685,-0.03288 -0.0987,-0.05529 -0.0587,-0.04354 -0.0927,-0.102931 -0.1328,-0.161232 -0.0463,-0.06114 -0.0953,-0.11993 -0.14625,-0.177249 -0.0516,-0.06097 -0.11129,-0.115242 -0.15399,-0.183452 -0.0477,-0.07037 -0.10206,-0.136943 -0.13126,-0.218075 -0.0355,-0.08608 -0.0647,-0.174865 -0.0791,-0.267165 -0.0178,-0.08811 -0.048,-0.172559 -0.0775,-0.25735 -5.3e-4,-0.0016 -5.3e-4,-0.003 -0.002,-0.0047 -0.11862,0.03627 -0.23359,-0.01114 -0.34106,-0.05219 -0.11724,-0.05213 -0.23162,-0.110908 -0.33641,-0.185518 h -5.3e-4 c -0.37658,-0.268666 -0.10232,-0.645047 0.27595,-0.378272 0.0279,0.01966 0.0564,0.03791 0.0858,0.05478 0.002,-0.0029 0.004,-0.006 0.006,-0.0088 -0.007,-0.0092 -0.0143,-0.01831 -0.0217,-0.02739 10e-4,-0.01103 0.002,-0.02223 0.004,-0.03307 0.004,-0.01725 0.0183,-0.05751 0.0243,-0.07286 0.0162,-0.04121 0.0335,-0.08233 0.0563,-0.120407 0.0189,-0.03157 0.0412,-0.04734 0.061,-0.05012 z m -0.0718,0.207222 c -0.005,-0.0021 -0.002,0.02037 0.001,0.04496 0.001,-7.94e-4 0.002,-0.0019 0.003,-0.0026 0.005,-0.004 0.0108,-0.0074 0.016,-0.01035 -0.002,-0.0037 -0.004,-0.0073 -0.006,-0.01085 -0.007,-0.01283 -0.0112,-0.0195 -0.0139,-0.02119 z m 1.57096,1.876372 c -2.7e-4,2.65e-4 -7.9e-4,7.94e-4 -10e-4,0.0011 2.7e-4,2.65e-4 10e-4,7.94e-4 0.002,0.0016 -2.7e-4,-7.94e-4 -5.3e-4,-0.0019 -0.001,-0.0026 z m 0.1664,0.06046 c -1.7e-4,5.29e-4 -4e-5,0.0011 -5.3e-4,0.0016 2.2e-4,2.65e-4 5e-5,5.3e-4 5.3e-4,0.0011 4e-5,-0.0011 0,-0.0019 0,-0.0026 z m -5.3e-4,0.01034 c -2.6e-4,7.94e-4 -5.3e-4,0.0021 -0.001,0.0031 v 5.29e-4 c -5e-5,2.54e-4 5e-5,7.94e-4 0,0.0011 2.3e-4,5.29e-4 5.3e-4,0.0011 0.001,0.0016 0,-0.0016 -2e-5,-0.0029 0,-0.0047 10e-6,-2.59e-4 -2e-5,-0.0011 0,-0.0016 z m -5.3e-4,0.01241 v 5.29e-4 h 5.3e-4 v -5.29e-4 z m -0.005,0.0067 c -1e-5,2.65e-4 -1e-4,7.94e-4 -5.3e-4,0.0011 l 5.3e-4,5.29e-4 c -5e-5,-5.29e-4 5e-5,-0.0011 0,-0.0016 z m 0.004,0.05116 v 0.0031 c 1.8e-4,0.0019 9e-5,0.0042 5.3e-4,0.0062 5.3e-4,-0.0024 2.6e-4,-0.0038 0,-0.0062 -1e-4,-7.94e-4 -5.3e-4,-0.0024 -5.3e-4,-0.0031 z" />
    </clipPath>
    <clipPath
       clipPathUnits="userSpaceOnUse"
       id="clipPath38433">
      <path
         id="path38435"
         style="fill:#ff0000;fill-opacity:1;fill-rule:nonzero;stroke:none;stroke-width:0.264583"
         d="m 105.68761,84.334387 c 0.0199,0.01352 0.0396,0.02741 0.0589,0.04186 0.003,0.0021 -0.0866,0.242927 -0.0946,0.264068 -0.0329,0.07135 -0.0247,0.129061 0,0.199472 0.036,0.09881 0.0677,0.198868 0.0894,0.301789 0.01,0.06197 0.0266,0.12302 0.0522,0.18035 0.0194,0.05089 0.0558,0.09151 0.0863,0.135909 0.0358,0.05285 0.0832,0.09616 0.12454,0.144695 0.0357,0.04016 0.0702,0.08118 0.10387,0.122989 0.0127,0.0085 0.0252,0.01714 0.0377,0.02585 0.0283,0.01783 0.0543,0.03794 0.078,0.06149 0.0191,0.0227 0.0418,0.04149 0.0636,0.06149 0.0109,0.0096 0.0212,0.01987 0.031,0.03049 0.0291,-0.01833 0.052,-0.0146 0.0827,0 0.0236,0.01479 0.0467,0.03033 0.0698,0.04599 0.0267,0.01725 0.0493,0.0396 0.0693,0.06408 0.0166,0.02048 0.03,0.04332 0.0455,0.06459 0.001,0.0013 0.002,0.0027 0.003,0.0041 h 5.2e-4 c 0.007,0.0011 0.015,0.0065 0.0233,0.01447 5.3e-4,-0.004 0.001,-0.0079 0.002,-0.01188 h -5.3e-4 c 0.003,-0.0123 0.0101,-0.01868 0.0165,-0.01963 v -0.01241 c 0.007,-0.0011 0.013,0.0041 0.0134,0.01498 0.005,0.0021 0.0102,0.0069 0.0139,0.01498 0.004,0.0085 0.007,0.01744 0.01,0.02635 5.2e-4,-2.65e-4 5.2e-4,-7.94e-4 10e-4,-0.0011 l 0.003,-0.0052 c 2.3e-4,8e-6 2.6e-4,2.9e-5 0.002,0 0.007,-7.94e-4 0.016,0.0058 0.0181,0.02016 5.3e-4,0.0046 8e-4,0.0093 5.3e-4,0.01394 2e-4,2.43e-4 8e-4,0.0013 0.001,0.0016 v 0.0031 c 1e-4,2.3e-4 5.3e-4,0.0029 5.3e-4,0.0031 v 0.0016 c 5e-5,2.46e-4 5.3e-4,0.0013 5.3e-4,0.0016 v 5.3e-4 c 1.2e-4,0.0013 2e-5,0.0028 5.3e-4,0.0041 v 0.0016 5.29e-4 5.29e-4 c -5e-5,2.46e-4 -5.3e-4,0.0019 -5.3e-4,0.0021 l -5.3e-4,5.29e-4 v 5.29e-4 5.29e-4 5.29e-4 c -5e-5,2.33e-4 5e-5,0.0013 0,0.0016 l -5.3e-4,0.0016 v 0.0031 0.0011 5.29e-4 l -0.001,5.3e-4 c 0,2.46e-4 1e-5,0.0019 0,0.0021 v 5.29e-4 c -5e-5,7.94e-4 3e-5,0.0016 -5.3e-4,0.0026 v 5.29e-4 c 5e-5,0.0011 5.3e-4,0.0021 5.3e-4,0.0031 v 5.29e-4 c 1e-5,2.54e-4 -10e-6,0.0024 0,0.0026 5e-5,0.0011 -5e-5,0.0021 0,0.0031 1e-5,2.25e-4 0,0.0029 0,0.0031 v 5.29e-4 5.3e-4 l -5.3e-4,0.0016 c -5e-5,5.29e-4 -5.3e-4,0.0011 -5.3e-4,0.0016 -4e-5,5.29e-4 5e-5,0.0011 0,0.0016 -9e-5,0.0013 -5.2e-4,0.0026 -5.2e-4,0.0036 -3e-5,2.62e-4 2e-5,7.94e-4 0,0.0011 6e-5,5.29e-4 5.2e-4,0.0016 5.2e-4,0.0021 0,0.0031 -5.2e-4,0.0062 -0.001,0.0093 2.4e-4,7.94e-4 0.001,0.0016 0.001,0.0026 0,0.0076 -7e-5,0.01516 5.3e-4,0.02273 2e-5,2.62e-4 -1e-5,0.0013 0,0.0016 -5e-5,0.0011 3e-5,0.0021 -5.3e-4,0.0031 v 5.3e-4 0.0026 c 9e-5,5.3e-4 1e-4,0.0024 5.3e-4,0.0031 v 0.0021 c 4e-5,2.17e-4 -5e-5,0.0013 0,0.0016 l 5.3e-4,5.29e-4 v 5.3e-4 c 1e-5,2.3e-4 1e-5,0.0019 0,0.0021 v 0.0021 5.29e-4 5.29e-4 c -10e-5,7.94e-4 -10e-6,0.0016 -5.3e-4,0.0021 l -5.3e-4,5.29e-4 c 2.7e-4,0.0039 5.3e-4,0.0079 5.3e-4,0.01188 4e-5,0.0026 4e-5,0.0088 0,0.01138 -4e-5,0.0019 2e-5,0.0044 0,0.0062 1.6e-4,0.0063 5.3e-4,0.0123 5.3e-4,0.0186 -1.3e-4,0.0048 1.1e-4,0.0098 -5.3e-4,0.01447 -1.7e-4,0.0035 0,0.0068 -5.3e-4,0.01035 -1.8e-4,0.0029 -1.9e-4,0.0059 5.3e-4,0.0088 2.6e-4,0.0039 -1.1e-4,0.0076 5.3e-4,0.01138 5.3e-4,0.0032 5.3e-4,0.0066 0,0.0098 5.3e-4,5.29e-4 8e-4,0.0013 0.001,0.0021 v 5.29e-4 c 4e-5,2.54e-4 5.3e-4,0.0019 5.3e-4,0.0021 v 5.29e-4 c 1.3e-4,7.94e-4 1.8e-4,0.0013 5.3e-4,0.0021 9e-5,2.65e-4 5.3e-4,0.0029 5.3e-4,0.0031 1.6e-4,5.29e-4 10e-4,0.0021 10e-4,0.0026 2e-5,2.65e-4 0,0.0019 0,0.0021 -2e-5,2.62e-4 5e-5,0.0019 0,0.0021 -7e-5,2.62e-4 -10e-4,0.0024 -10e-4,0.0026 l -5.3e-4,5.29e-4 v 0.0016 l -5.3e-4,5.29e-4 -5.3e-4,5.3e-4 -5.3e-4,5.29e-4 c 1.4e-4,2.62e-4 0,7.93e-4 0,0.0011 1.2e-4,2.62e-4 5.3e-4,7.94e-4 5.3e-4,0.0011 9e-5,2.54e-4 5.3e-4,0.0019 5.3e-4,0.0021 9e-5,2.62e-4 5.3e-4,0.0019 5.3e-4,0.0021 8e-5,2.62e-4 5.3e-4,0.0013 5.3e-4,0.0016 v 5.29e-4 c 1.9e-4,5.3e-4 10e-4,0.0026 10e-4,0.0031 3e-5,2.65e-4 0,0.0019 0,0.0021 -2e-5,2.62e-4 5e-5,0.0019 0,0.0021 -7e-5,2.52e-4 -10e-4,0.0024 -10e-4,0.0026 l -5.3e-4,5.29e-4 v 5.3e-4 c 0,5.29e-4 -10e-6,0.0019 0,0.0021 v 5.29e-4 5.3e-4 l -5.3e-4,0.0021 c -9e-5,2.36e-4 -5.3e-4,0.0013 -5.3e-4,0.0016 v 5.29e-4 l -5.3e-4,5.29e-4 -5.3e-4,5.29e-4 c 1.7e-4,0.0016 1.2e-4,0.004 5.3e-4,0.0057 5e-5,2.62e-4 -4e-5,0.0029 0,0.0031 0,0.0019 -2.6e-4,0.0049 -0.002,0.0062 -2.3e-4,2.62e-4 10e-4,0.0029 -0.002,0.0031 -2.3e-4,1.19e-4 -2.7e-4,5.29e-4 -0.002,5.29e-4 h -5.3e-4 c 10e-4,0.0058 0.002,0.01177 0.003,0.01757 h 10e-4 c 0.002,0.0075 -0.004,0.01021 -0.007,0.0062 -8e-4,-0.0011 -0.002,-0.0038 -0.003,-0.0057 -0.001,-0.0058 -0.002,-0.01167 -0.003,-0.01757 -1.7e-4,-0.0013 1.9e-4,-0.0019 -5.3e-4,-0.0031 -2.7e-4,-0.0032 -2.7e-4,-0.0031 -0.001,-0.0062 -5.3e-4,-0.0031 -0.001,-0.0049 -0.001,-0.0057 -0.007,0.0054 -0.0175,0.0021 -0.0227,-0.01394 -10e-4,-0.0034 -0.002,-0.0069 -0.003,-0.01035 -0.002,0.0016 -0.006,0.0013 -0.009,-0.0031 l -10e-4,5.29e-4 c -0.002,0.0011 -0.005,5.3e-4 -0.007,-0.0026 -1.3e-4,-2.62e-4 -7.9e-4,-0.0024 -0.001,-0.0026 -1.3e-4,-2.62e-4 4e-5,-0.0019 -5.3e-4,-0.0021 -5.3e-4,0.0011 -0.002,0.0026 -0.002,0.0031 -0.001,7.94e-4 -0.003,0.0021 -0.005,0.0016 l -5.3e-4,-5.29e-4 c -10e-4,-0.0013 -0.003,-0.0039 -0.003,-0.0067 1.9e-4,-0.0019 -6e-5,-0.0042 5.3e-4,-0.0062 0,-7.93e-4 -2e-5,-0.0019 0,-0.0026 2e-5,-2.65e-4 -2e-5,-0.0013 0,-0.0016 -0.002,0.0016 -0.006,0.0016 -0.008,-0.0031 -0.006,-0.0098 -0.0136,-0.02093 -0.0186,-0.03101 -0.004,-0.0072 -0.008,-0.01455 -0.009,-0.02273 h 5.3e-4 c -2.7e-4,-0.0011 -8e-4,-0.0024 -0.001,-0.0036 -0.0157,0.0097 -0.0352,0.01402 -0.0605,0.01344 -0.0309,-0.0063 -0.0565,-0.02416 -0.0811,-0.04289 -0.01,-0.0077 -0.019,-0.0172 -0.0305,-0.0217 -0.0189,-0.0036 -0.0369,-0.01053 -0.0553,-0.01601 -0.0288,-0.0066 -0.0553,-0.01847 -0.0796,-0.03514 -0.0134,-0.01069 -0.0246,-0.02357 -0.0346,-0.03721 -0.01,-0.0021 -0.0175,-0.0049 -0.0191,-0.0078 -0.0112,-0.01963 -0.0244,-0.04104 -0.03,-0.06305 -0.008,-0.0091 -0.0152,-0.0186 -0.0227,-0.02791 -7.9e-4,2.65e-4 -0.001,2.62e-4 -0.002,5.29e-4 0.0348,0.169103 0.0462,0.335518 -0.14418,0.229442 -0.0329,-0.01831 -0.068,-0.03288 -0.0982,-0.05529 -0.0587,-0.04354 -0.0932,-0.102931 -0.13333,-0.161232 -0.0463,-0.06114 -0.0953,-0.11993 -0.14624,-0.177249 -0.0516,-0.06097 -0.1113,-0.115242 -0.154,-0.183452 -0.0477,-0.07037 -0.10206,-0.136943 -0.13126,-0.218075 -0.0355,-0.08608 -0.0647,-0.174868 -0.0791,-0.267165 -0.0178,-0.08811 -0.048,-0.172559 -0.0775,-0.25735 -5.3e-4,-0.0016 -5.3e-4,-0.003 -0.002,-0.0047 -0.0778,0.02379 -0.15384,0.0114 -0.22737,-0.01138 v 1.990061 h 8.11475 v -2.618962 z m 0.82837,1.850017 c -2.7e-4,2.65e-4 -7.9e-4,7.94e-4 -0.001,0.0011 2.7e-4,2.65e-4 0.001,7.94e-4 0.002,0.0016 -2.7e-4,-7.94e-4 -5.3e-4,-0.0019 -0.001,-0.0026 z" />
    </clipPath>
  </defs>
  <g
     id="layer1"
     transform="translate(-97.945072,-67.728166)">
    <path
       style="fill:none;stroke:#000000;stroke-width:0.265;stroke-dasharray:none"
       d="m 111.64535,90.504917 c -0.7919,0.242 -1.8238,0.141 -2.7233,-0.474 -0.8996,-0.615 -1.6423,-1.761 -1.7474,-3.192 -0.1051,-1.431 0.4648,-3.136 1.8513,-4.419 1.3866,-1.283 3.6094,-2.096 6.0678,-1.722 2.4584,0.375 5.1199,1.995 6.7526,4.833 1.6327,2.837 2.1493,6.907 0.5687,10.917 -1.5805,4.009003 -5.3453,7.882003 -10.7697,9.546003"
       title="pow(e,((log((1+sqrt(5))/2,e) /(pi/2))*x))"
       id="path4227" />
    <path
       style="fill:none;stroke:#000000;stroke-width:0.265;stroke-dasharray:none"
       d="m 109.80208,83.34375 c 0.7919,-0.242 1.8238,-0.141 2.7233,0.474 0.8996,0.615 1.6423,1.761 1.7474,3.192 0.1051,1.431 -0.4648,3.136 -1.8513,4.419 -1.3866,1.283 -3.6094,2.096 -6.0678,1.722 -2.4584,-0.375 -5.1199,-1.995 -6.752597,-4.833 -1.6327,-2.837 -2.1493,-6.907 -0.5687,-10.917 1.580497,-4.009004 5.345297,-7.882004 10.769697,-9.546004"
       title="pow(e,((log((1+sqrt(5))/2,e) /(pi/2))*x))"
       id="path4227-3"
       clip-path="url(#clipPath38423)" />
    <ellipse
       style="fill:none;stroke:#000000;stroke-width:0.325177;stroke-dasharray:none"
       id="path8407"
       cx="110.67905"
       cy="86.908287"
       rx="3.5628815"
       ry="3.6981511" />
    <rect
       style="fill:none;stroke:#000000;stroke-width:0.261494;stroke-dasharray:none"
       id="rect8411"
       width="7.7094941"
       height="7.957541"
       x="106.82377"
       y="82.928589"
       clip-path="url(#clipPath38159)" />
    <path
       style="fill:#000000;stroke:#000000;stroke-width:0.264999;stroke-dasharray:none"
       d="m 110.69259,90.610935 -2.44576,-6.453957"
       id="path9944" />
    <path
       style="fill:#000000;stroke:#000000;stroke-width:0.264999;stroke-dasharray:none"
       d="m 110.68659,90.608982 2.40892,-6.340956"
       id="path9946" />
    <path
       style="fill:none;stroke:#000000;stroke-width:0.201;stroke-dasharray:none"
       d="m 105.07813,84.334363 c 0,0 0,0.01 0.002,0.0294 0.002,0.0196 0.006,0.0488 0.0157,0.0869 0.008,0.0382 0.0209,0.0854 0.0397,0.14043 0.0176,0.055 0.043,0.11791 0.0749,0.18726 0.0319,0.0693 0.0716,0.14503 0.11991,0.22537 0.0483,0.0803 0.10543,0.16534 0.17214,0.25298 0.0667,0.0876 0.1428,0.17789 0.22885,0.26871 0.0861,0.0908 0.18191,0.18215 0.28747,0.2719 0.10582,0.0898 0.22122,0.17789 0.34572,0.26239 0.12441,0.0845 0.25854,0.16533 0.40058,0.2406 0.14162,0.0753 0.29205,0.14499 0.44891,0.20752 0.15688,0.0626 0.321,0.11792 0.48967,0.16478 0.16901,0.0469 0.34268,0.0853 0.52012,0.11434 0.17703,0.029 0.35717,0.0487 0.53879,0.0586 0.18134,0.01 0.36363,0.01 0.54486,0 0.18153,-0.01 0.36173,-0.0295 0.5388,-0.0586 0.17742,-0.029 0.35106,-0.0674 0.52011,-0.11434 0.16901,-0.0469 0.3328,-0.10222 0.48968,-0.16478 0.15688,-0.0625 0.30726,-0.13223 0.44891,-0.20752 0.14201,-0.0753 0.27605,-0.15611 0.40057,-0.2406 0.12461,-0.0845 0.23988,-0.17265 0.34573,-0.26239 0.10543,-0.0897 0.20142,-0.18109 0.28747,-0.2719 0.0861,-0.0908 0.16216,-0.1811 0.22885,-0.26871 0.0667,-0.0876 0.12382,-0.17262 0.17214,-0.25298 0.0483,-0.0803 0.088,-0.15608 0.11991,-0.22537 0.0321,-0.0694 0.0567,-0.13223 0.0749,-0.18726 0.0196,-0.0551 0.0313,-0.10219 0.0397,-0.14043 0.008,-0.0382 0.0137,-0.0674 0.0156,-0.0869 0.002,-0.0196 0.002,-0.0294 0.002,-0.0294"
       title="5 * (t-sin(t)) -5 * (1-cos(t))"
       id="path31535"
       clip-path="url(#clipPath38433)" />
  </g>
</svg>
